<?xml version="1.0" standalone="no"?>
<!DOCTYPE svg PUBLIC "-//W3C//DTD SVG 20010904//EN"
 "http://www.w3.org/TR/2001/REC-SVG-20010904/DTD/svg10.dtd">
<svg version="1.0" xmlns="http://www.w3.org/2000/svg"
 width="2096.000000pt" height="436.000000pt" viewBox="0 0 2096.000000 436.000000"
 preserveAspectRatio="xMidYMid meet">

<g transform="translate(0.000000,436.000000) scale(0.100000,-0.100000)"
fill="#000000" stroke="none">
<path d="M19423 4295 l-23 -24 0 -1076 c0 -710 3 -1075 10 -1075 14 0 13 -66
-2 -89 -9 -15 -8 -22 5 -35 13 -13 42 -16 170 -16 115 0 157 -3 161 -12 5 -10
7 -10 12 0 3 6 12 12 21 12 44 0 43 -40 43 1170 0 976 -2 1144 -14 1156 -12
11 -50 14 -188 13 -169 0 -173 -1 -195 -24z"/>
<path d="M12960 4060 l0 -200 200 0 c127 0 200 4 200 10 0 6 9 10 20 10 19 0
20 7 20 176 0 139 -3 178 -14 190 -12 11 -55 14 -220 14 l-206 0 0 -200z"/>
<path d="M1033 4105 c-17 -18 -19 -2105 -3 -2105 6 0 10 -9 10 -20 0 -19 7
-20 200 -20 193 0 200 1 200 20 0 11 5 20 10 20 7 0 10 355 10 1046 0 893 -2
1048 -14 1060 -21 21 -395 20 -413 -1z"/>
<path d="M12220 4010 c0 -5 -13 -10 -30 -10 -16 0 -30 -4 -30 -10 0 -5 -9 -10
-20 -10 -11 0 -20 -4 -20 -10 0 -5 -13 -10 -30 -10 -16 0 -30 -4 -30 -10 0 -5
-22 -10 -50 -10 -27 0 -50 -4 -50 -10 0 -5 -16 -10 -35 -10 -25 0 -44 -8 -60
-25 -24 -23 -25 -30 -25 -149 0 -89 3 -125 12 -128 8 -3 3 -14 -14 -31 -27
-27 -29 -27 -163 -27 l-135 0 0 -160 0 -160 150 0 150 0 0 -380 c0 -247 4
-380 10 -380 6 0 10 -37 10 -90 0 -53 4 -90 10 -90 6 0 10 -9 10 -20 0 -11 5
-20 10 -20 6 0 10 -13 10 -30 0 -16 5 -30 10 -30 6 0 10 -7 10 -16 0 -9 14
-29 30 -44 17 -15 30 -33 30 -40 0 -16 25 -40 42 -40 8 0 20 -9 28 -20 8 -11
22 -20 32 -20 10 0 18 -4 18 -10 0 -5 9 -10 20 -10 11 0 20 -4 20 -10 0 -5 18
-10 40 -10 22 0 40 -4 40 -10 0 -5 18 -10 40 -10 22 0 40 -4 40 -10 0 -6 37
-10 90 -10 53 0 90 4 90 10 0 6 30 10 70 10 40 0 70 4 70 10 0 6 7 10 16 10
37 0 44 24 44 160 0 129 0 131 -27 158 -17 17 -28 22 -31 14 -5 -15 -222 -17
-222 -2 0 6 -7 10 -15 10 -9 0 -31 16 -50 35 -27 26 -35 43 -35 70 0 19 -4 35
-10 35 -6 0 -10 33 -10 80 0 47 -4 80 -10 80 -6 0 -10 47 -10 120 0 73 4 120
10 120 6 0 10 18 10 40 0 22 -4 40 -10 40 -5 0 -10 5 -10 11 0 5 5 7 10 4 6
-4 10 12 10 39 0 25 -4 46 -10 46 -5 0 -10 9 -10 20 0 11 5 20 10 20 6 0 10 7
10 15 0 8 -4 15 -8 15 -5 0 -9 7 -9 15 0 8 4 15 9 15 4 0 8 23 8 50 l0 50 180
0 180 0 0 160 0 160 -165 0 c-163 0 -166 0 -190 25 -22 21 -25 33 -25 90 0 37
4 65 10 65 6 0 10 30 10 70 0 40 -4 70 -10 70 -13 0 -13 36 2 76 9 27 9 35 -5
48 -17 18 -47 22 -47 6z"/>
<path d="M4300 3990 c0 -5 -13 -10 -30 -10 -16 0 -30 -4 -30 -10 0 -5 -13 -10
-30 -10 -16 0 -30 -4 -30 -10 0 -5 -18 -10 -40 -10 -22 0 -40 -4 -40 -10 0 -5
-16 -10 -35 -10 -25 0 -44 -8 -60 -25 -24 -23 -25 -29 -25 -165 0 -109 -3
-145 -14 -156 -11 -11 -47 -14 -156 -14 -109 0 -145 -3 -156 -14 -20 -21 -20
-271 0 -292 11 -11 49 -14 170 -14 l156 0 0 -450 c0 -293 3 -450 10 -450 6 0
10 -13 10 -30 0 -16 5 -30 10 -30 6 0 10 -13 10 -30 0 -16 5 -30 10 -30 6 0
10 -9 10 -20 0 -11 5 -20 10 -20 6 0 10 -9 10 -20 0 -11 5 -20 10 -20 6 0 10
-7 10 -15 0 -20 65 -85 85 -85 8 0 15 -4 15 -10 0 -5 9 -10 20 -10 11 0 20 -4
20 -10 0 -5 9 -10 20 -10 11 0 20 -4 20 -10 0 -5 23 -10 50 -10 28 0 50 -4 50
-10 0 -5 18 -10 40 -10 22 0 40 -4 40 -10 0 -6 37 -10 90 -10 53 0 90 4 90 10
0 6 23 10 50 10 28 0 50 5 50 10 0 6 12 10 26 10 14 0 32 6 40 14 16 17 19 46
4 46 -6 0 -10 50 -10 130 l0 130 -120 0 c-73 0 -120 4 -120 10 0 6 -12 10 -26
10 -29 0 -54 21 -54 44 0 9 -4 16 -10 16 -5 0 -10 9 -10 20 0 11 -4 20 -10 20
-5 0 -10 14 -10 30 0 17 -4 30 -10 30 -6 0 -10 133 -10 380 l0 380 180 0 180
0 0 160 0 160 -166 0 c-130 0 -168 3 -180 14 -11 12 -14 55 -14 220 l0 206
-50 0 c-27 0 -50 -4 -50 -10z"/>
<path d="M5660 3610 c0 -5 -22 -10 -50 -10 -27 0 -50 -4 -50 -10 0 -5 -18 -10
-40 -10 -22 0 -40 -4 -40 -10 0 -5 -13 -10 -28 -10 -16 0 -34 -8 -42 -20 -8
-11 -22 -20 -32 -20 -10 0 -18 -4 -18 -10 0 -5 -7 -10 -16 -10 -8 0 -37 -22
-64 -50 -27 -27 -56 -50 -64 -50 -9 0 -16 -7 -16 -16 0 -9 -13 -29 -30 -44
-16 -15 -30 -33 -30 -40 0 -7 -13 -25 -30 -40 -16 -15 -30 -35 -30 -44 0 -9
-4 -16 -10 -16 -5 0 -10 -13 -10 -30 0 -16 -4 -30 -10 -30 -5 0 -10 -13 -10
-30 0 -16 -4 -30 -10 -30 -5 0 -10 -18 -10 -40 0 -22 -4 -40 -10 -40 -6 0 -10
-33 -10 -80 0 -47 -4 -80 -10 -80 -6 0 -10 -33 -10 -80 0 -47 4 -80 10 -80 6
0 10 -30 10 -70 0 -40 4 -70 10 -70 6 0 10 -13 10 -30 0 -16 5 -30 10 -30 6 0
10 -18 10 -40 0 -22 5 -40 10 -40 6 0 10 -9 10 -20 0 -11 5 -20 10 -20 6 0 10
-9 10 -20 0 -11 5 -20 10 -20 6 0 10 -9 10 -20 0 -11 5 -20 10 -20 6 0 10 -7
10 -15 0 -17 164 -185 181 -185 6 0 24 -13 39 -30 15 -16 35 -30 44 -30 9 0
16 -4 16 -10 0 -5 9 -10 20 -10 11 0 20 -4 20 -10 0 -5 14 -10 30 -10 17 0 30
-4 30 -10 0 -5 14 -10 30 -10 17 0 30 -4 30 -10 0 -5 14 -10 30 -10 17 0 30
-4 30 -10 0 -6 80 -10 220 -10 140 0 220 4 220 10 0 6 18 10 40 10 22 0 40 5
40 10 0 6 18 10 40 10 22 0 40 5 40 10 0 6 18 10 40 10 22 0 40 5 40 10 0 6 9
10 20 10 11 0 20 5 20 10 0 6 14 10 30 10 l30 0 0 176 c0 151 -2 178 -17 192
-12 12 -18 13 -21 4 -2 -6 -12 -12 -23 -12 -10 0 -19 -4 -19 -10 0 -5 -9 -10
-20 -10 -11 0 -20 -4 -20 -10 0 -5 -9 -10 -20 -10 -11 0 -20 -4 -20 -10 0 -5
-9 -10 -20 -10 -11 0 -20 -4 -20 -10 0 -5 -13 -10 -30 -10 -16 0 -30 -4 -30
-10 0 -5 -13 -10 -30 -10 -16 0 -30 -4 -30 -10 0 -5 -18 -10 -40 -10 -22 0
-40 -4 -40 -10 0 -6 -43 -10 -110 -10 -67 0 -110 4 -110 10 0 6 -18 10 -40 10
-22 0 -40 5 -40 10 0 6 -13 10 -30 10 -16 0 -30 5 -30 10 0 6 -7 10 -16 10 -9
0 -29 14 -44 30 -15 17 -33 30 -40 30 -16 0 -40 25 -40 42 0 8 -9 20 -20 28
-11 8 -20 22 -20 32 0 10 -4 18 -10 18 -5 0 -10 9 -10 20 0 11 -4 20 -10 20
-5 0 -10 23 -10 50 l0 50 536 0 c451 0 538 2 550 14 11 11 14 46 14 150 0 84
-4 136 -10 136 -5 0 -10 23 -10 50 0 28 -4 50 -10 50 -5 0 -10 18 -10 40 0 22
-4 40 -10 40 -5 0 -10 14 -10 30 0 17 -4 30 -10 30 -5 0 -10 9 -10 20 0 11 -4
20 -10 20 -5 0 -10 13 -10 28 0 16 -8 34 -20 42 -11 8 -20 22 -20 32 0 10 -4
18 -10 18 -5 0 -10 7 -10 15 0 20 -145 165 -165 165 -8 0 -15 5 -15 10 0 6 -8
10 -18 10 -10 0 -24 9 -32 20 -8 12 -26 20 -42 20 -15 0 -28 5 -28 10 0 6 -18
10 -40 10 -22 0 -40 5 -40 10 0 6 -18 10 -40 10 -22 0 -40 5 -40 10 0 6 -47
10 -120 10 -73 0 -120 -4 -120 -10z m200 -320 c0 -5 14 -10 30 -10 17 0 30 -4
30 -10 0 -5 9 -10 20 -10 11 0 20 -4 20 -10 0 -5 7 -10 16 -10 19 0 44 -24 44
-42 0 -8 9 -20 20 -28 11 -8 20 -22 20 -32 0 -10 5 -18 10 -18 6 0 10 -40 10
-100 l0 -100 -330 0 -330 0 0 80 c0 47 4 80 10 80 6 0 10 8 10 18 0 10 9 24
20 32 11 8 20 20 20 27 0 19 86 103 105 103 8 0 15 5 15 10 0 6 18 10 40 10
22 0 40 5 40 10 0 6 37 10 90 10 53 0 90 -4 90 -10z"/>
<path d="M14400 3610 c0 -5 -18 -10 -40 -10 -22 0 -40 -4 -40 -10 0 -5 -18
-10 -40 -10 -22 0 -40 -4 -40 -10 0 -5 -13 -10 -28 -10 -16 0 -34 -8 -42 -20
-8 -11 -22 -20 -32 -20 -10 0 -18 -4 -18 -10 0 -5 -8 -10 -18 -10 -10 0 -24
-9 -32 -20 -8 -11 -20 -20 -27 -20 -16 0 -163 -145 -163 -161 0 -6 -13 -24
-30 -39 -16 -15 -30 -35 -30 -44 0 -9 -4 -16 -10 -16 -5 0 -10 -9 -10 -20 0
-11 -4 -20 -10 -20 -5 0 -10 -9 -10 -20 0 -11 -4 -20 -10 -20 -5 0 -10 -13
-10 -30 0 -16 -4 -30 -10 -30 -5 0 -10 -13 -10 -30 0 -16 -4 -30 -10 -30 -6 0
-10 -77 -10 -210 0 -133 4 -210 10 -210 6 0 10 -18 10 -40 0 -22 5 -40 10 -40
6 0 10 -13 10 -30 0 -16 5 -30 10 -30 6 0 10 -9 10 -20 0 -11 5 -20 10 -20 6
0 10 -13 10 -30 0 -16 5 -30 10 -30 6 0 10 -8 10 -18 0 -10 9 -24 20 -32 11
-8 20 -21 20 -28 0 -8 14 -27 30 -42 17 -15 30 -33 30 -40 0 -15 25 -40 40
-40 6 0 29 -18 50 -40 21 -22 46 -40 54 -40 9 0 16 -4 16 -10 0 -5 8 -10 18
-10 10 0 24 -9 32 -20 8 -11 22 -20 32 -20 10 0 18 -4 18 -10 0 -5 14 -10 30
-10 17 0 30 -4 30 -10 0 -5 14 -10 30 -10 17 0 30 -4 30 -10 0 -5 14 -10 30
-10 17 0 30 -4 30 -10 0 -6 70 -10 190 -10 120 0 190 4 190 10 0 6 18 10 40
10 22 0 40 5 40 10 0 6 9 10 20 10 11 0 20 5 20 10 0 6 14 10 30 10 17 0 30 5
30 10 0 6 9 10 20 10 11 0 20 5 20 10 0 6 8 10 18 10 10 0 24 9 32 20 8 11 21
20 30 20 9 0 22 9 30 20 8 11 20 20 27 20 17 0 163 146 163 163 0 7 9 19 20
27 11 8 20 22 20 32 0 10 5 18 10 18 6 0 10 14 10 30 0 17 5 30 10 30 6 0 10
9 10 20 0 11 5 20 10 20 6 0 10 9 10 20 0 11 5 20 10 20 6 0 10 18 10 40 0 22
5 40 10 40 6 0 10 33 10 80 0 47 4 80 10 80 6 0 10 18 10 40 0 22 -4 40 -10
40 -6 0 -10 30 -10 70 0 40 -4 70 -10 70 -5 0 -10 23 -10 50 0 28 -4 50 -10
50 -5 0 -10 14 -10 30 0 17 -4 30 -10 30 -5 0 -10 9 -10 20 0 11 -4 20 -10 20
-5 0 -10 9 -10 20 0 11 -4 20 -10 20 -5 0 -10 9 -10 20 0 11 -4 20 -10 20 -5
0 -10 7 -10 16 0 8 -22 37 -50 64 -27 27 -50 54 -50 60 0 14 -46 60 -60 60 -7
0 -29 18 -50 40 -21 22 -46 40 -54 40 -9 0 -16 5 -16 10 0 6 -9 10 -20 10 -11
0 -20 5 -20 10 0 6 -9 10 -20 10 -11 0 -20 5 -20 10 0 6 -13 10 -30 10 -16 0
-30 5 -30 10 0 6 -18 10 -40 10 -22 0 -40 5 -40 10 0 6 -22 10 -50 10 -27 0
-50 5 -50 10 0 6 -53 10 -140 10 -87 0 -140 -4 -140 -10z m280 -340 c0 -5 14
-10 30 -10 17 0 30 -4 30 -10 0 -5 7 -10 15 -10 19 0 85 -64 85 -82 0 -8 9
-20 20 -28 12 -8 20 -26 20 -42 0 -15 5 -28 10 -28 6 0 10 -13 10 -30 0 -16 5
-30 10 -30 6 0 10 -13 10 -30 0 -16 5 -30 10 -30 6 0 10 -22 10 -50 0 -27 5
-50 10 -50 6 0 10 -30 10 -70 0 -40 -4 -70 -10 -70 -5 0 -10 -22 -10 -50 0
-27 -4 -50 -10 -50 -5 0 -10 -13 -10 -30 0 -16 -4 -30 -10 -30 -5 0 -10 -9
-10 -20 0 -11 -4 -20 -10 -20 -5 0 -10 -9 -10 -20 0 -11 -4 -20 -10 -20 -5 0
-10 -13 -10 -28 0 -16 -8 -34 -20 -42 -11 -8 -20 -22 -20 -32 0 -10 -7 -18
-16 -18 -9 0 -29 -13 -44 -30 -15 -16 -35 -30 -44 -30 -9 0 -16 -4 -16 -10 0
-5 -13 -10 -30 -10 -16 0 -30 -4 -30 -10 0 -6 -33 -10 -80 -10 -47 0 -80 4
-80 10 0 6 -13 10 -30 10 -16 0 -30 5 -30 10 0 6 -9 10 -20 10 -11 0 -20 5
-20 10 0 6 -7 10 -15 10 -20 0 -125 105 -125 125 0 8 -4 15 -10 15 -5 0 -10 9
-10 20 0 11 -4 20 -10 20 -5 0 -10 14 -10 30 0 17 -4 30 -10 30 -6 0 -10 27
-10 60 0 33 -4 60 -10 60 -6 0 -10 43 -10 110 0 67 4 110 10 110 6 0 10 30 10
70 0 40 4 70 10 70 6 0 10 12 10 26 0 15 10 35 22 45 11 11 16 19 9 19 -6 0
18 29 54 65 35 36 71 65 80 65 8 0 15 5 15 10 0 6 14 10 30 10 17 0 30 5 30
10 0 6 47 10 120 10 73 0 120 -4 120 -10z"/>
<path d="M2760 3590 c0 -5 -13 -10 -30 -10 -16 0 -30 -4 -30 -10 0 -5 -13 -10
-30 -10 -16 0 -30 -4 -30 -10 0 -5 -9 -10 -20 -10 -11 0 -20 -4 -20 -10 0 -5
-9 -10 -20 -10 -11 0 -20 -4 -20 -10 0 -5 -7 -10 -15 -10 -20 0 -125 -105
-125 -125 0 -19 -7 -19 -26 -1 -8 8 -14 26 -14 40 0 14 -4 26 -10 26 -5 0 -10
25 -10 56 0 84 0 84 -200 84 -135 0 -174 -3 -186 -14 -17 -17 -21 -186 -4
-186 7 0 10 -239 10 -696 0 -589 2 -698 14 -710 21 -21 371 -21 392 0 12 12
14 83 14 430 0 271 3 416 10 416 6 0 10 30 10 70 0 40 4 70 10 70 6 0 10 9 10
20 0 11 5 20 10 20 6 0 10 9 10 20 0 11 5 20 10 20 6 0 10 14 10 30 0 17 5 30
10 30 6 0 10 7 10 15 0 9 16 31 35 50 19 19 41 35 50 35 8 0 15 5 15 10 0 6 9
10 20 10 11 0 20 5 20 10 0 6 46 10 118 10 106 0 119 -2 132 -20 8 -11 20 -20
28 -20 18 0 62 -46 62 -65 0 -8 5 -15 10 -15 6 0 10 -18 10 -40 0 -22 5 -40
10 -40 6 0 10 -27 10 -60 0 -33 4 -60 10 -60 7 0 10 -163 10 -470 0 -463 0
-470 20 -470 11 0 20 -4 20 -10 0 -6 65 -10 176 -10 139 0 178 3 190 14 12 12
14 106 14 600 0 384 -3 586 -10 586 -5 0 -10 14 -10 30 0 17 -4 30 -10 30 -5
0 -10 18 -10 40 0 22 -4 40 -10 40 -5 0 -10 14 -10 30 0 17 -4 30 -10 30 -5 0
-10 8 -10 18 0 10 -9 24 -20 32 -11 8 -20 20 -20 28 0 17 -45 62 -62 62 -8 0
-20 9 -28 20 -8 11 -22 20 -32 20 -10 0 -18 5 -18 10 0 6 -13 10 -30 10 -16 0
-30 5 -30 10 0 6 -18 10 -40 10 -22 0 -40 5 -40 10 0 6 -22 10 -50 10 -27 0
-50 -4 -50 -10 0 -6 -27 -10 -60 -10 -33 0 -60 4 -60 10 0 6 -18 10 -40 10
-22 0 -40 -4 -40 -10z"/>
<path d="M8900 3590 c0 -5 -18 -10 -40 -10 -22 0 -40 -4 -40 -10 0 -5 -13 -10
-30 -10 -16 0 -30 -4 -30 -10 0 -5 -13 -10 -28 -10 -16 0 -34 -8 -42 -20 -8
-11 -21 -20 -30 -20 -9 0 -22 -9 -30 -20 -8 -11 -20 -20 -28 -20 -18 0 -82
-66 -82 -85 0 -8 -9 -15 -20 -15 -18 0 -20 7 -20 80 0 47 -4 80 -10 80 -5 0
-10 14 -10 30 l0 30 -176 0 c-139 0 -178 -3 -190 -14 -12 -12 -14 -131 -14
-786 l0 -771 25 -24 c24 -25 26 -25 205 -25 144 0 184 3 196 14 12 12 14 89
14 470 0 297 3 456 10 456 6 0 10 14 10 30 0 17 5 30 10 30 6 0 10 14 10 30 0
17 5 30 10 30 6 0 10 13 10 28 0 16 8 34 20 42 11 8 20 20 20 28 0 18 66 82
85 82 8 0 15 5 15 10 0 6 9 10 20 10 11 0 20 5 20 10 0 6 45 10 116 10 116 0
116 0 144 -30 15 -16 35 -30 44 -30 9 0 16 -8 16 -20 0 -11 5 -20 10 -20 6 0
10 -9 10 -20 0 -11 5 -20 10 -20 6 0 10 -9 10 -20 0 -11 5 -20 10 -20 6 0 10
-37 10 -90 0 -53 4 -90 10 -90 7 0 10 -155 10 -446 0 -373 2 -448 14 -460 12
-11 53 -14 200 -14 179 0 186 1 186 20 0 11 5 20 10 20 6 0 10 107 10 300 0
193 -4 300 -10 300 -5 0 -10 14 -10 30 0 17 5 30 13 30 8 0 7 4 -3 10 -10 6
-11 10 -2 10 9 0 12 26 12 96 0 61 -4 93 -10 89 -7 -4 -10 50 -10 154 0 101
-4 161 -10 161 -5 0 -10 18 -10 40 0 22 -4 40 -10 40 -5 0 -10 14 -10 30 0 17
-4 30 -10 30 -5 0 -10 9 -10 20 0 11 -4 20 -10 20 -5 0 -10 9 -10 20 0 11 -4
20 -10 20 -5 0 -10 8 -10 18 0 10 -9 24 -20 32 -11 8 -20 22 -20 32 0 11 -7
18 -18 18 -10 0 -24 9 -32 20 -8 11 -22 20 -32 20 -10 0 -18 5 -18 10 0 6 -18
10 -40 10 -22 0 -40 5 -40 10 0 6 -13 10 -30 10 -16 0 -30 5 -30 10 0 6 -18
10 -40 10 -22 0 -40 -4 -40 -10 0 -6 -30 -10 -70 -10 -40 0 -70 4 -70 10 0 6
-13 10 -30 10 -16 0 -30 -4 -30 -10z"/>
<path d="M10460 3590 c0 -6 -33 -10 -80 -10 -47 0 -80 -4 -80 -10 0 -6 -27
-10 -60 -10 -33 0 -60 -4 -60 -10 0 -5 -9 -10 -20 -10 -11 0 -20 -4 -20 -10 0
-5 -7 -10 -15 -10 -25 0 -65 -46 -65 -75 0 -14 5 -25 10 -25 6 0 10 -50 10
-130 l0 -130 28 0 c16 0 34 8 42 20 8 11 22 20 32 20 10 0 18 5 18 10 0 6 9
10 20 10 11 0 20 5 20 10 0 6 14 10 30 10 17 0 30 5 30 10 0 6 23 10 50 10 28
0 50 5 50 10 0 6 63 10 170 10 107 0 170 -4 170 -10 0 -5 11 -10 25 -10 29 0
115 -79 115 -105 0 -8 5 -15 10 -15 6 0 10 -18 10 -40 0 -22 5 -40 10 -40 15
0 12 -70 -4 -86 -12 -11 -59 -14 -250 -14 -151 0 -236 -4 -236 -10 0 -5 -13
-10 -30 -10 -16 0 -30 -4 -30 -10 0 -6 -27 -10 -60 -10 -33 0 -60 -4 -60 -10
0 -5 -9 -10 -20 -10 -11 0 -20 -4 -20 -10 0 -5 -9 -10 -20 -10 -11 0 -20 -4
-20 -10 0 -5 -8 -10 -18 -10 -10 0 -24 -9 -32 -20 -8 -11 -20 -20 -27 -20 -19
0 -143 -126 -143 -145 0 -8 -4 -15 -10 -15 -5 0 -10 -13 -10 -30 0 -16 -4 -30
-10 -30 -6 0 -10 -30 -10 -70 0 -40 -4 -70 -10 -70 -5 0 -10 -13 -10 -30 0
-16 5 -30 10 -30 6 0 10 -27 10 -60 0 -33 4 -60 10 -60 6 0 10 -9 10 -20 0
-11 5 -20 10 -20 6 0 10 -13 10 -28 0 -16 8 -34 20 -42 11 -8 20 -20 20 -27 0
-17 86 -103 103 -103 7 0 19 -9 27 -20 8 -11 22 -20 32 -20 10 0 18 -4 18 -10
0 -5 14 -10 30 -10 17 0 30 -4 30 -10 0 -5 14 -10 30 -10 17 0 30 -4 30 -10 0
-5 23 -10 50 -10 28 0 50 -4 50 -10 0 -6 27 -10 60 -10 33 0 60 4 60 10 0 6
23 10 50 10 28 0 50 5 50 10 0 6 14 10 30 10 17 0 30 5 30 10 0 6 14 10 30 10
17 0 30 5 30 10 0 6 9 10 20 10 11 0 20 5 20 10 0 6 7 10 16 10 8 0 42 27 74
60 78 79 90 79 90 -5 0 -57 3 -69 25 -90 24 -25 27 -25 195 -25 135 0 174 3
186 14 17 17 21 186 4 186 -7 0 -10 160 -10 460 0 300 -3 460 -10 460 -5 0
-10 23 -10 50 0 28 -4 50 -10 50 -5 0 -10 18 -10 40 0 22 -4 40 -10 40 -5 0
-10 9 -10 20 0 11 -4 20 -10 20 -5 0 -10 8 -10 18 0 10 -9 24 -20 32 -11 8
-20 20 -20 28 0 17 -65 82 -82 82 -8 0 -20 9 -28 20 -8 11 -22 20 -32 20 -10
0 -18 5 -18 10 0 6 -8 10 -18 10 -10 0 -24 9 -32 20 -10 14 -26 20 -52 20 -21
0 -38 5 -38 10 0 6 -27 10 -60 10 -33 0 -60 4 -60 10 0 6 -63 10 -170 10 -107
0 -170 -4 -170 -10z m460 -929 c0 -11 6 -22 13 -25 10 -5 10 -7 0 -12 -7 -3
-13 -23 -13 -45 0 -21 -4 -39 -10 -39 -5 0 -10 -13 -10 -30 0 -16 -4 -30 -10
-30 -5 0 -10 -9 -10 -20 0 -11 -4 -20 -10 -20 -5 0 -10 -8 -10 -18 0 -10 -9
-24 -20 -32 -11 -8 -20 -20 -20 -28 0 -18 -66 -82 -85 -82 -8 0 -15 -4 -15
-10 0 -5 -9 -10 -20 -10 -11 0 -20 -4 -20 -10 0 -6 -43 -10 -110 -10 -67 0
-110 4 -110 10 0 6 -9 10 -20 10 -11 0 -20 5 -20 10 0 6 -7 10 -15 10 -20 0
-65 45 -65 65 0 8 -4 15 -10 15 -5 0 -10 13 -10 29 0 16 -6 32 -12 35 -10 5
-10 7 0 12 6 3 12 23 12 45 0 21 5 39 10 39 6 0 10 7 10 15 0 20 45 65 65 65
8 0 15 5 15 10 0 6 9 10 20 10 11 0 20 5 20 10 0 6 9 10 20 10 11 0 20 5 20
10 0 6 23 10 50 10 28 0 50 5 50 10 0 6 60 10 160 10 151 0 160 -1 160 -19z"/>
<path d="M16650 3590 c-8 -5 -50 -10 -92 -10 -45 0 -78 -4 -78 -10 0 -5 -18
-10 -40 -10 -22 0 -40 -4 -40 -10 0 -5 -9 -10 -20 -10 -11 0 -20 -4 -20 -10 0
-5 -7 -10 -16 -10 -9 0 -29 -13 -44 -30 -15 -16 -33 -30 -40 -30 -15 0 -40
-25 -40 -40 0 -6 -11 -22 -25 -36 -40 -40 -55 -16 -55 86 0 57 -4 86 -14 96
-12 11 -53 14 -200 14 -179 0 -186 -1 -186 -20 0 -11 -4 -20 -10 -20 -6 0 -10
-83 -10 -230 0 -147 4 -230 10 -230 6 0 10 -33 10 -80 0 -47 -4 -80 -10 -80
-7 0 -10 -160 -10 -460 0 -300 3 -460 10 -460 6 0 10 -9 10 -20 0 -19 7 -20
206 -20 165 0 208 3 220 14 12 12 14 90 14 480 0 304 3 466 10 466 6 0 10 14
10 30 0 17 5 30 10 30 6 0 10 14 10 30 0 17 5 30 10 30 6 0 10 9 10 20 0 11 5
20 10 20 6 0 10 7 10 15 0 20 105 125 125 125 8 0 15 5 15 10 0 6 49 10 128
10 116 0 129 -2 142 -20 8 -11 22 -20 32 -20 11 0 18 -7 18 -18 0 -10 9 -24
20 -32 11 -8 20 -22 20 -32 0 -10 5 -18 10 -18 6 0 10 -13 10 -30 0 -16 5 -30
10 -30 6 0 10 -22 10 -50 0 -27 5 -50 10 -50 7 0 10 -167 10 -480 0 -473 0
-480 20 -480 11 0 20 -4 20 -10 0 -6 70 -10 190 -10 l190 0 0 590 c0 387 -3
590 -10 590 -5 0 -10 18 -10 40 0 22 -4 40 -10 40 -5 0 -10 9 -10 20 0 11 -4
20 -10 20 -5 0 -10 14 -10 30 0 17 -4 30 -10 30 -5 0 -10 9 -10 20 0 11 -4 20
-10 20 -5 0 -10 8 -10 18 0 10 -9 24 -20 32 -11 8 -20 22 -20 32 0 11 -7 18
-20 18 -11 0 -19 3 -19 8 4 21 -3 32 -19 32 -10 0 -24 9 -32 20 -8 11 -22 20
-32 20 -10 0 -18 5 -18 10 0 6 -18 10 -40 10 -22 0 -40 5 -40 10 0 6 -13 10
-30 10 -16 0 -30 5 -30 10 0 6 -18 10 -40 10 -22 0 -40 -4 -40 -10 0 -5 -19
-10 -42 -9 -37 1 -39 2 -18 9 21 7 21 8 5 9 -11 0 -27 -4 -35 -9z"/>
<path d="M18100 3590 c0 -6 -30 -10 -70 -10 -40 0 -70 -4 -70 -10 0 -5 -22
-10 -50 -10 -27 0 -50 -4 -50 -10 0 -5 -9 -10 -20 -10 -11 0 -20 -4 -20 -10 0
-5 -9 -10 -20 -10 -11 0 -20 -4 -20 -10 0 -5 -7 -10 -16 -10 -34 0 -44 -26
-44 -114 0 -51 4 -86 10 -86 6 0 10 -30 10 -70 0 -70 0 -70 28 -70 16 0 34 8
42 20 8 11 22 20 32 20 10 0 18 5 18 10 0 6 9 10 20 10 11 0 20 5 20 10 0 6
18 10 40 10 22 0 40 5 40 10 0 6 30 10 70 10 40 0 70 4 70 10 0 6 50 10 130
10 80 0 130 -4 130 -10 0 -5 16 -10 35 -10 29 0 44 -9 80 -45 25 -24 45 -51
45 -60 0 -8 5 -15 10 -15 6 0 10 -13 10 -30 0 -16 5 -30 10 -30 6 0 10 -27 10
-60 l0 -60 -260 0 c-167 0 -260 -4 -260 -10 0 -5 -9 -10 -20 -10 -11 0 -20 -4
-20 -10 0 -6 -27 -10 -60 -10 -33 0 -60 -4 -60 -10 0 -5 -9 -10 -20 -10 -11 0
-20 -4 -20 -10 0 -5 -13 -10 -30 -10 -16 0 -30 -4 -30 -10 0 -5 -8 -10 -18
-10 -10 0 -24 -9 -32 -20 -8 -11 -20 -20 -27 -20 -19 0 -123 -106 -123 -125 0
-8 -4 -15 -10 -15 -5 0 -10 -9 -10 -20 0 -11 -4 -20 -10 -20 -5 0 -10 -9 -10
-20 0 -11 -4 -20 -10 -20 -6 0 -10 -60 -10 -160 0 -100 4 -160 10 -160 6 0 10
-9 10 -20 0 -11 5 -20 10 -20 6 0 10 -9 10 -20 0 -11 5 -20 10 -20 6 0 10 -7
10 -16 0 -9 14 -29 30 -44 17 -15 30 -35 30 -44 0 -9 7 -16 16 -16 9 0 29 -13
44 -30 15 -17 35 -30 44 -30 9 0 16 -4 16 -10 0 -5 9 -10 20 -10 11 0 20 -4
20 -10 0 -5 9 -10 20 -10 11 0 20 -4 20 -10 0 -5 23 -10 50 -10 28 0 50 -4 50
-10 0 -5 23 -10 50 -10 28 0 50 -4 50 -10 0 -5 23 -10 50 -10 28 0 50 5 50 10
0 6 23 10 50 10 28 0 50 5 50 10 0 6 14 10 30 10 17 0 30 5 30 10 0 6 9 10 20
10 11 0 20 4 20 8 0 4 12 9 28 10 15 1 29 7 30 12 2 6 10 10 18 10 8 0 46 32
85 71 61 62 71 69 84 55 11 -10 15 -37 15 -90 l0 -76 160 0 c100 0 160 -4 160
-10 0 -15 29 -12 46 4 11 12 14 57 14 230 0 137 -4 216 -10 216 -6 0 -10 117
-10 330 0 213 -4 330 -10 330 -6 0 -10 30 -10 70 0 40 -4 70 -10 70 -5 0 -10
9 -10 20 0 11 -4 20 -10 20 -5 0 -10 9 -10 20 0 11 -4 20 -10 20 -5 0 -10 9
-10 20 0 11 -4 20 -10 20 -5 0 -10 7 -10 15 0 20 -105 125 -125 125 -8 0 -15
5 -15 10 0 6 -9 10 -20 10 -11 0 -20 5 -20 10 0 6 -9 10 -20 10 -11 0 -20 5
-20 10 0 6 -9 10 -20 10 -11 0 -20 5 -20 10 0 6 -18 10 -40 10 -22 0 -40 5
-40 10 0 6 -27 10 -60 10 -33 0 -60 4 -60 10 0 6 -60 10 -160 10 -100 0 -160
-4 -160 -10z m486 -924 c16 -16 19 -86 4 -86 -5 0 -10 -9 -10 -20 0 -11 -4
-20 -10 -20 -5 0 -10 -13 -10 -30 0 -16 -4 -30 -10 -30 -5 0 -10 -8 -10 -18 0
-10 -9 -24 -20 -32 -11 -8 -20 -22 -20 -32 0 -10 -4 -18 -10 -18 -5 0 -10 -9
-10 -20 0 -13 -7 -20 -20 -20 -13 0 -20 -7 -20 -20 0 -13 -7 -20 -18 -20 -10
0 -24 -9 -32 -20 -8 -12 -26 -20 -42 -20 -15 0 -28 -4 -28 -10 0 -5 -13 -10
-30 -10 -16 0 -30 -4 -30 -10 0 -5 -13 -10 -30 -10 -16 0 -30 5 -30 10 0 6
-13 10 -30 10 -16 0 -30 5 -30 10 0 6 -9 10 -20 10 -11 0 -20 5 -20 10 0 6 -7
10 -15 10 -20 0 -85 65 -85 85 0 8 -4 15 -10 15 -6 0 -10 27 -10 60 0 33 4 60
10 60 6 0 10 12 10 26 0 28 20 54 42 54 8 0 20 9 28 20 8 11 22 20 32 20 10 0
18 5 18 10 0 6 9 10 20 10 11 0 20 5 20 10 0 6 18 10 40 10 22 0 40 5 40 10 0
6 62 10 166 10 130 0 168 -3 180 -14z"/>
<path d="M6853 3565 c-9 -10 -13 -61 -13 -180 0 -103 -4 -165 -10 -165 -5 0
-10 -22 -10 -50 0 -27 5 -50 10 -50 7 0 10 -195 10 -566 0 -477 2 -568 14
-580 21 -21 391 -21 412 0 12 12 14 82 14 420 0 264 3 406 10 406 6 0 10 23
10 50 0 28 5 50 10 50 6 0 10 9 10 20 0 11 5 20 10 20 6 0 10 14 10 30 0 17 5
30 10 30 6 0 10 7 10 16 0 9 14 29 30 44 17 15 30 33 30 40 0 16 26 40 44 40
9 0 16 5 16 10 0 6 9 10 20 10 11 0 20 5 20 10 0 6 14 10 30 10 17 0 30 5 30
10 0 6 14 10 30 10 17 0 30 -4 30 -10 0 -5 14 -10 30 -10 17 0 30 5 30 10 0 6
9 10 20 10 11 0 20 -4 20 -10 0 -5 18 -10 40 -10 l40 0 0 186 c0 147 -3 188
-14 200 -17 17 -266 21 -266 4 0 -5 -12 -10 -26 -10 -16 0 -37 -12 -54 -30
-15 -16 -35 -30 -44 -30 -9 0 -16 -7 -16 -16 0 -9 -13 -29 -30 -44 -16 -15
-30 -35 -30 -44 0 -9 -4 -16 -10 -16 -5 0 -10 -9 -10 -20 0 -11 -4 -20 -10
-20 -5 0 -10 -11 -10 -25 0 -22 -39 -75 -55 -75 -3 0 -5 70 -5 156 0 121 -3
159 -14 170 -21 20 -355 20 -373 -1z"/>
<path d="M12973 3565 c-10 -11 -13 -187 -13 -810 l0 -795 200 0 c127 0 200 4
200 10 0 6 9 10 20 10 20 0 20 7 20 790 0 783 0 790 -20 790 -11 0 -20 5 -20
10 0 6 -69 10 -187 10 -150 -1 -191 -4 -200 -15z"/>
<path d="M11240 1350 c0 -5 -18 -10 -40 -10 -22 0 -40 -4 -40 -10 0 -5 -13
-10 -28 -10 -16 0 -34 -8 -42 -20 -8 -11 -21 -20 -30 -20 -9 0 -22 -9 -30 -20
-8 -11 -20 -20 -28 -20 -17 0 -42 -25 -42 -42 0 -8 -9 -20 -20 -28 -11 -8 -20
-22 -20 -32 0 -10 -4 -18 -10 -18 -5 0 -10 -13 -10 -30 0 -16 -4 -30 -10 -30
-5 0 -10 -13 -10 -30 0 -16 -4 -30 -10 -30 -6 0 -10 -43 -10 -110 0 -67 4
-110 10 -110 6 0 10 -13 10 -30 0 -16 5 -30 10 -30 6 0 10 -13 10 -30 0 -16 5
-30 10 -30 6 0 10 -7 10 -15 0 -19 104 -125 123 -125 7 0 19 -9 27 -20 8 -12
26 -20 42 -20 15 0 28 -4 28 -10 0 -5 9 -10 20 -10 11 0 20 -4 20 -10 0 -6 59
-10 158 -10 146 0 159 1 172 20 8 11 25 20 38 20 14 0 36 13 52 30 15 17 33
30 39 30 16 0 81 66 81 82 0 8 9 20 20 28 14 10 20 26 20 52 0 21 5 38 10 38
6 0 10 9 10 20 0 11 5 20 10 20 6 0 10 47 10 120 0 73 -4 120 -10 120 -5 0
-10 9 -10 20 0 11 -4 20 -10 20 -5 0 -10 14 -10 30 0 17 -4 30 -10 30 -5 0
-10 8 -10 18 0 10 -9 24 -20 32 -11 8 -20 22 -20 32 0 10 -7 18 -16 18 -9 0
-29 14 -44 30 -15 17 -34 30 -42 30 -7 0 -20 9 -28 20 -8 12 -26 20 -42 20
-15 0 -28 5 -28 10 0 6 -13 10 -30 10 -16 0 -30 5 -30 10 0 6 -40 10 -100 10
-60 0 -100 -4 -100 -10z m220 -120 c0 -5 9 -10 20 -10 11 0 20 -4 20 -10 0 -5
7 -10 15 -10 20 0 85 -65 85 -85 0 -8 5 -15 10 -15 6 0 10 -9 10 -20 0 -11 5
-20 10 -20 6 0 10 -13 10 -30 0 -16 5 -30 10 -30 6 0 10 -43 10 -110 0 -67 -4
-110 -10 -110 -5 0 -10 -9 -10 -20 0 -11 -4 -20 -10 -20 -5 0 -10 -9 -10 -20
0 -11 -4 -20 -10 -20 -5 0 -10 -7 -10 -15 0 -20 -85 -105 -105 -105 -8 0 -15
-4 -15 -10 0 -5 -13 -10 -30 -10 -16 0 -30 -4 -30 -10 0 -6 -30 -10 -70 -10
-40 0 -70 4 -70 10 0 6 -22 10 -50 10 -27 0 -50 5 -50 10 0 6 -7 10 -15 10
-27 0 -145 127 -145 155 0 14 -4 25 -10 25 -5 0 -10 9 -10 20 0 11 -4 20 -10
20 -6 0 -10 37 -10 90 0 53 4 90 10 90 6 0 10 14 10 30 0 17 5 30 10 30 6 0
10 9 10 20 0 11 5 20 10 20 6 0 10 7 10 15 0 26 107 125 135 125 14 0 25 5 25
10 0 6 50 10 130 10 80 0 130 -4 130 -10z"/>
<path d="M14780 1350 c0 -5 -18 -10 -40 -10 -22 0 -40 -4 -40 -10 0 -5 -13
-10 -28 -10 -16 0 -34 -8 -42 -20 -8 -11 -21 -20 -30 -20 -9 0 -22 -9 -30 -20
-8 -11 -20 -20 -28 -20 -18 0 -82 -66 -82 -85 0 -8 -4 -15 -10 -15 -5 0 -10
-9 -10 -20 0 -11 -4 -20 -10 -20 -5 0 -10 -18 -10 -40 0 -22 -4 -40 -10 -40
-6 0 -10 -47 -10 -120 0 -73 4 -120 10 -120 6 0 10 -18 10 -40 0 -22 5 -40 10
-40 6 0 10 -9 10 -20 0 -11 5 -20 10 -20 6 0 10 -7 10 -15 0 -18 84 -105 101
-105 6 0 24 -13 39 -30 17 -18 38 -30 54 -30 14 0 26 -4 26 -10 0 -5 9 -10 20
-10 11 0 20 -4 20 -10 0 -6 57 -10 150 -10 93 0 150 4 150 10 0 6 9 10 20 10
11 0 20 5 20 10 0 6 13 10 28 10 16 0 34 8 42 20 8 11 20 20 28 20 20 0 42 26
42 50 0 27 -43 70 -71 70 -11 0 -34 -13 -49 -30 -17 -18 -38 -30 -54 -30 -14
0 -26 -4 -26 -10 0 -6 -26 -10 -59 -10 -38 0 -61 -5 -65 -12 -5 -10 -7 -10
-12 0 -4 7 -27 12 -65 12 -33 0 -59 4 -59 10 0 6 -11 10 -25 10 -28 0 -135 99
-135 125 0 8 -4 15 -10 15 -5 0 -10 9 -10 20 0 11 -4 20 -10 20 -5 0 -10 14
-10 30 0 17 -4 30 -10 30 -6 0 -10 33 -10 80 0 47 4 80 10 80 6 0 10 16 10 36
0 27 7 43 30 64 17 15 30 33 30 39 0 17 67 81 85 81 8 0 15 5 15 10 0 6 14 10
30 10 17 0 30 5 30 10 0 6 43 10 110 10 67 0 110 -4 110 -10 0 -5 13 -10 28
-10 16 0 34 -8 42 -20 8 -11 22 -20 32 -20 10 0 18 -4 18 -10 0 -5 14 -10 30
-10 17 0 30 5 30 10 0 6 9 10 20 10 15 0 20 7 20 25 0 27 -40 75 -62 75 -8 0
-20 9 -28 20 -8 12 -26 20 -42 20 -15 0 -28 5 -28 10 0 6 -18 10 -40 10 -22 0
-40 5 -40 10 0 6 -37 10 -90 10 -53 0 -90 -4 -90 -10z"/>
<path d="M16060 1350 c0 -5 -13 -10 -30 -10 -16 0 -30 -4 -30 -10 0 -5 -13
-10 -28 -10 -16 0 -34 -8 -42 -20 -8 -11 -21 -20 -30 -20 -9 0 -22 -9 -30 -20
-8 -11 -20 -20 -28 -20 -18 0 -62 -46 -62 -65 0 -8 -4 -15 -10 -15 -5 0 -10
-9 -10 -20 0 -11 -4 -20 -10 -20 -5 0 -10 -9 -10 -20 0 -11 -4 -20 -10 -20 -5
0 -10 -13 -10 -30 0 -16 -4 -30 -10 -30 -6 0 -10 -50 -10 -130 0 -80 4 -130
10 -130 6 0 10 -13 10 -30 0 -16 5 -30 10 -30 6 0 10 -9 10 -20 0 -11 5 -20
10 -20 6 0 10 -7 10 -15 0 -20 125 -145 145 -145 8 0 15 -4 15 -10 0 -5 13
-10 28 -10 16 0 34 -8 42 -20 13 -19 26 -20 175 -20 107 0 155 4 145 10 -11 7
-7 10 18 10 17 0 32 5 32 10 0 6 9 10 20 10 11 0 20 5 20 10 0 6 7 10 16 10 9
0 29 14 44 30 15 17 33 30 39 30 17 0 61 47 61 65 0 8 5 15 10 15 6 0 10 9 10
20 0 11 5 20 10 20 6 0 10 18 10 40 0 22 5 40 10 40 6 0 10 9 10 20 0 11 5 20
10 20 6 0 10 40 10 100 0 60 -4 100 -10 100 -5 0 -10 9 -10 20 0 11 -4 20 -10
20 -5 0 -10 18 -10 41 0 24 -4 38 -10 34 -6 -3 -10 4 -10 17 0 13 -9 30 -20
38 -11 8 -20 22 -20 32 0 10 -7 18 -16 18 -9 0 -29 14 -44 30 -15 17 -34 30
-42 30 -7 0 -20 9 -28 20 -8 12 -26 20 -42 20 -15 0 -28 5 -28 10 0 6 -18 10
-40 10 -22 0 -40 5 -40 10 0 6 -40 10 -100 10 -60 0 -100 -4 -100 -10z m220
-120 c0 -5 14 -10 30 -10 17 0 30 -4 30 -10 0 -5 7 -10 15 -10 20 0 85 -65 85
-85 0 -8 5 -15 10 -15 6 0 10 -9 10 -20 0 -11 5 -20 10 -20 6 0 10 -13 10 -30
0 -16 5 -30 10 -30 6 0 10 -43 10 -110 0 -67 -4 -110 -10 -110 -5 0 -10 -9
-10 -20 0 -11 -4 -20 -10 -20 -5 0 -10 -9 -10 -20 0 -11 -4 -20 -10 -20 -5 0
-10 -7 -10 -15 0 -20 -65 -85 -85 -85 -8 0 -15 -4 -15 -10 0 -5 -9 -10 -20
-10 -11 0 -20 -4 -20 -10 0 -5 -18 -10 -40 -10 -22 0 -40 -4 -40 -10 0 -6 -30
-10 -70 -10 -40 0 -70 4 -70 10 0 6 -13 10 -30 10 -16 0 -30 5 -30 10 0 6 -9
10 -20 10 -11 0 -20 5 -20 10 0 6 -7 10 -15 10 -19 0 -65 44 -65 62 0 8 -9 20
-20 28 -12 8 -20 26 -20 42 0 15 -4 28 -10 28 -5 0 -10 9 -10 20 0 11 -4 20
-10 20 -6 0 -10 39 -10 98 0 86 2 99 20 112 11 8 20 26 20 40 0 14 9 32 20 40
11 8 20 20 20 27 0 25 88 103 115 103 14 0 25 5 25 10 0 6 47 10 120 10 73 0
120 -4 120 -10z"/>
<path d="M3080 904 c0 -478 -2 -464 60 -464 60 0 60 -2 60 334 l0 306 26 0
c26 0 54 -20 54 -40 0 -6 23 -33 50 -60 28 -27 50 -55 50 -62 0 -8 9 -20 20
-28 11 -8 20 -21 20 -30 0 -9 9 -22 20 -30 11 -8 20 -21 20 -28 0 -8 14 -27
30 -42 17 -15 30 -34 30 -42 0 -7 9 -20 20 -28 11 -8 20 -20 20 -28 0 -18 25
-42 44 -42 9 0 16 -7 16 -15 0 -24 146 -165 171 -165 49 0 49 -2 49 464 l0
436 -60 0 -60 0 0 -310 c0 -271 -2 -310 -15 -310 -18 0 -105 84 -105 101 0 6
-18 28 -40 49 -22 21 -40 44 -40 50 0 6 -18 29 -40 50 -22 21 -40 45 -40 52 0
7 -9 20 -20 28 -11 8 -20 21 -20 30 0 9 -9 22 -20 30 -11 8 -20 20 -20 28 0 7
-31 44 -70 82 -38 38 -70 74 -70 80 0 26 -30 40 -84 40 l-56 0 0 -436z"/>
<path d="M4440 1030 c0 -200 4 -310 10 -310 6 0 10 -13 10 -30 0 -16 5 -30 10
-30 6 0 10 -11 10 -25 0 -28 99 -135 125 -135 8 0 15 -4 15 -10 0 -5 9 -10 20
-10 11 0 20 -4 20 -10 0 -5 9 -10 20 -10 11 0 20 -4 20 -10 0 -6 50 -10 130
-10 80 0 130 4 130 10 0 6 9 10 20 10 11 0 20 5 20 10 0 6 7 10 16 10 9 0 29
14 44 30 15 17 33 30 39 30 21 0 61 49 61 75 0 14 5 25 10 25 6 0 10 9 10 20
0 11 5 20 10 20 6 0 10 117 10 330 l0 330 -60 0 c-53 0 -60 -2 -60 -20 0 -11
-4 -20 -10 -20 -6 0 -10 -110 -10 -310 0 -200 -4 -310 -10 -310 -5 0 -10 -7
-10 -15 0 -20 -65 -85 -85 -85 -8 0 -15 -4 -15 -10 0 -5 -18 -10 -40 -10 -22
0 -40 -4 -40 -10 0 -5 -22 -10 -50 -10 -27 0 -50 5 -50 10 0 6 -9 10 -20 10
-11 0 -20 5 -20 10 0 6 -11 10 -25 10 -29 0 -75 40 -75 65 0 8 -4 15 -10 15
-5 0 -10 14 -10 30 0 17 -4 30 -10 30 -6 0 -10 110 -10 310 l0 310 -70 0 -70
0 0 -310z"/>
<path d="M5700 1304 c0 -59 12 -64 160 -64 101 0 135 -3 146 -14 12 -12 14
-77 14 -386 0 -408 -1 -400 60 -400 61 0 60 -9 60 414 l0 386 146 0 c163 0
174 4 174 64 l0 36 -380 0 -380 0 0 -36z"/>
<path d="M6960 904 c0 -486 -3 -464 70 -464 67 0 70 9 70 174 l0 146 105 0
106 0 44 -45 c25 -24 45 -50 45 -56 0 -6 14 -24 30 -39 17 -15 30 -33 30 -39
0 -6 29 -41 65 -76 63 -63 66 -65 116 -65 32 0 56 6 66 15 14 14 13 18 -6 34
-12 10 -21 26 -21 35 0 9 -7 16 -15 16 -18 0 -85 64 -85 80 0 6 -27 38 -61 71
-53 52 -59 61 -45 74 8 8 22 15 30 15 9 0 16 5 16 10 0 6 11 10 25 10 29 0
115 79 115 105 0 8 5 15 10 15 6 0 10 14 10 30 0 17 5 30 10 30 6 0 10 34 10
81 0 51 -4 78 -10 74 -6 -4 -10 7 -10 25 0 24 -12 43 -55 85 -30 30 -61 55
-70 55 -8 0 -15 5 -15 10 0 6 -13 10 -30 10 -16 0 -30 5 -30 10 0 6 -93 10
-260 10 l-260 0 0 -436z m480 326 c0 -5 11 -10 25 -10 29 0 75 -40 75 -65 0
-8 5 -15 10 -15 6 0 10 -35 10 -85 0 -84 -1 -86 -35 -120 -19 -19 -41 -35 -50
-35 -8 0 -15 -4 -15 -10 0 -6 -67 -10 -180 -10 l-180 0 0 180 0 180 170 0
c107 0 170 -4 170 -10z"/>
<path d="M8273 1325 c-16 -18 -19 -845 -3 -845 6 0 10 -9 10 -20 0 -17 7 -20
46 -20 26 0 51 6 60 14 12 12 14 86 14 450 l0 436 -57 0 c-37 -1 -63 -6 -70
-15z"/>
<path d="M8920 1290 l0 -50 150 0 c143 0 150 -1 150 -20 0 -11 5 -20 10 -20 6
0 10 -133 10 -380 l0 -380 46 0 c77 0 74 -18 74 400 0 309 2 374 14 386 11 11
46 14 150 14 l136 0 0 50 0 50 -370 0 -370 0 0 -50z"/>
<path d="M10180 904 c0 -478 -2 -464 60 -464 62 0 60 -14 60 464 l0 436 -60 0
-60 0 0 -436z"/>
<path d="M12360 1320 c0 -11 -4 -20 -10 -20 -5 0 -10 -13 -10 -30 0 -16 5 -30
10 -30 6 0 10 -9 10 -20 0 -11 -4 -20 -10 -20 -6 0 -9 -99 -9 -256 -1 -267 2
-284 43 -284 9 0 16 -4 16 -10 0 -5 9 -10 19 -10 11 0 21 -6 23 -12 3 -9 9 -8
21 4 15 14 17 44 17 232 0 187 2 216 15 216 18 0 105 -84 105 -101 0 -6 14
-24 30 -39 17 -15 30 -33 30 -40 0 -7 14 -25 30 -40 17 -15 30 -33 30 -40 0
-6 18 -29 40 -50 22 -21 40 -46 40 -54 0 -9 5 -16 10 -16 6 0 10 -7 10 -15 0
-9 32 -47 70 -85 39 -38 70 -74 70 -80 0 -6 16 -26 35 -45 24 -25 43 -35 65
-35 62 0 60 -13 60 464 l0 436 -56 0 c-35 0 -61 -5 -70 -14 -16 -16 -19 -86
-4 -86 6 0 10 -93 10 -260 0 -167 -4 -260 -10 -260 -5 0 -10 -9 -10 -20 0 -11
-3 -20 -6 -20 -10 0 -34 28 -34 40 0 7 -13 25 -30 40 -16 15 -30 33 -30 40 0
7 -13 25 -30 40 -16 15 -30 34 -30 42 0 7 -9 20 -20 28 -11 8 -20 21 -20 28 0
8 -13 27 -30 42 -16 15 -30 33 -30 40 0 6 -22 33 -50 60 -27 27 -50 54 -50 60
0 6 -27 38 -60 70 -33 32 -60 64 -60 70 0 6 -11 22 -25 35 -18 19 -35 25 -70
25 -38 0 -45 -3 -45 -20z"/>
<path d="M17213 1245 c-10 -11 -13 -105 -13 -400 l0 -385 30 0 c17 0 30 -4 30
-10 0 -6 92 -10 256 -10 267 0 284 3 284 44 0 9 5 16 10 16 18 0 10 31 -15 55
-24 25 -25 25 -220 25 -128 0 -194 -3 -190 -10 9 -15 -15 -12 -31 4 -12 12
-14 71 -14 340 0 319 0 326 -20 326 -11 0 -20 5 -20 10 0 15 -73 11 -87 -5z"/>
<path d="M12433 525 c-7 -8 -13 -26 -13 -40 0 -21 5 -25 30 -25 23 0 30 5 30
19 0 11 6 21 12 23 9 3 8 9 -4 21 -20 20 -39 21 -55 2z"/>
</g>
</svg>
